HIERARCHY
ROOT Hips
{
	OFFSET 0.00 0.00 0.00
	CHANNELS 6 Xposition Yposition Zposition Xrotation Yrotation Zrotation
	JOINT Spine
	{
		OFFSET 0.00000 7.06766 0.00000
		CHANNELS 3 Xrotation Yrotation Zrotation
		JOINT Head
		{
			OFFSET 0.00000 15.03989 0.00000
			CHANNELS 3 Xrotation Yrotation Zrotation
			End Site
			{
				OFFSET 0.00000 4.52755 0.00000
			}
		}
		JOINT LeftShoulder
		{
			OFFSET 0.00000 10.53037 0.00000
			CHANNELS 3 Xrotation Yrotation Zrotation
			JOINT LeftArm
			{
				OFFSET 7.02886 0.00000 0.00000
				CHANNELS 3 Xrotation Yrotation Zrotation
				JOINT LeftForeArm
				{
					OFFSET 10.79770 0.00000 0.00000
					CHANNELS 3 Yrotation Zrotation Xrotation
					JOINT LeftHand
					{
						OFFSET 7.90744 0.00000 0.00000
						CHANNELS 3 Xrotation Yrotation Zrotation
						JOINT LeftHandThumb1
						{
							OFFSET 0.00000 0.00000 0.00000
							CHANNELS 3 Xrotation Zrotation Yrotation
							End Site
							{
								OFFSET 0.00000 0.00000 3.93700
							}
						}
						End Site
						{
							OFFSET 3.93700 0.00000 0.00000
						}
					}
				}
			}
		}
		JOINT RightShoulder
		{
			OFFSET 0.00000 10.53037 0.00000
			CHANNELS 3 Xrotation Yrotation Zrotation
			JOINT RightArm
			{
				OFFSET -7.02886 0.00000 0.00000
				CHANNELS 3 Xrotation Yrotation Zrotation
				JOINT RightForeArm
				{
					OFFSET -10.79770 0.00000 0.00000
					CHANNELS 3 Yrotation Zrotation Xrotation
					JOINT RightHand
					{
						OFFSET -7.90744 0.00000 0.00000
						CHANNELS 3 Xrotation Yrotation Zrotation
						JOINT RightHandThumb1
						{
							OFFSET 0.00000 0.00000 0.00000
							CHANNELS 3 Xrotation Zrotation Yrotation
							End Site
							{
								OFFSET 0.00000 0.00000 3.93700
							}
						}
						End Site
						{
							OFFSET -3.93700 0.00000 0.00000
						}
					}
				}
			}
		}
	}
	JOINT LeftUpLeg
	{
		OFFSET 4.01300 0.00000 0.00000
		CHANNELS 3 Xrotation Yrotation Zrotation
		JOINT LeftLeg
		{
			OFFSET 0.00000 -16.89976 0.00000
			CHANNELS 3 Xrotation Yrotation Zrotation
			JOINT LeftFoot
			{
				OFFSET 0.00000 -17.38918 0.00000
				CHANNELS 3 Xrotation Yrotation Zrotation
				JOINT LeftToeBase
				{
					OFFSET 0.00000 -1.27456 4.75673
					CHANNELS 3 Xrotation Yrotation Zrotation
					End Site
					{
						OFFSET 0.00000 0.00000 2.95275
					}
				}
			}
		}
	}
	JOINT RightUpLeg
	{
		OFFSET -4.01300 0.00000 0.00000
		CHANNELS 3 Xrotation Yrotation Zrotation
		JOINT RightLeg
		{
			OFFSET 0.00000 -16.89976 0.00000
			CHANNELS 3 Xrotation Yrotation Zrotation
			JOINT RightFoot
			{
				OFFSET 0.00000 -17.38918 0.00000
				CHANNELS 3 Xrotation Yrotation Zrotation
				JOINT RightToeBase
				{
					OFFSET 0.00000 -1.27456 4.75673
					CHANNELS 3 Xrotation Yrotation Zrotation
					End Site
					{
						OFFSET 0.00000 0.00000 2.95275
					}
				}
			}
		}
	}
}
MOTION
Frames: 22
Frame Time: 0.008333
 20.9933 5.2658 -15.0709 -163.2124 -2.4688 -147.7206 28.9215 -12.7784 -34.3835 26.2494 14.3760 -12.2721 -20.9431 9.0215 -0.8861 32.8077 25.2726 -59.6522 -52.3235 -0.0000 -20.8331 1.3685 12.9186 -6.0995 33.1476 -0.0000 26.2537 13.3565 -3.8926 -0.0436 -8.3546 27.7783 75.8581 35.6534 0.0000 33.3007 -0.4818 -6.8846 -4.0132 32.8623 0.0000 -24.3270 -21.7641 14.0413 35.3612 151.5455 -0.0000 -0.0000 46.0361 15.4046 13.8346 22.7022 0.0000 -0.0000 -113.9822 -43.2148 -29.3377 125.8275 0.0000 -0.0000 33.0777 -14.0658 13.9039 42.7446 -0.0000 -0.0000
 21.0095 5.2702 -15.0945 -163.5347 -2.4980 -147.8132 28.4254 -12.5999 -34.5221 26.0002 14.4182 -11.9565 -21.1188 9.0729 -0.7439 32.5214 25.8723 -59.3133 -52.0977 -0.0000 -19.6283 1.5602 12.9096 -6.9511 33.1476 -0.0000 26.2537 13.2422 -3.9287 0.0912 -8.2660 27.7877 75.8913 35.6286 0.0000 33.5735 -0.4182 -7.1587 -3.3517 32.8623 0.0000 -24.3270 -21.9024 14.0518 35.5070 151.4480 -0.0000 0.0000 45.9988 15.2034 13.9985 22.7938 -0.0000 -0.0000 -114.0800 -43.5038 -29.3194 125.7375 -0.0000 0.0000 33.2515 -14.1987 14.0129 42.9140 -0.0000 -0.0000
 21.0232 5.2737 -15.1184 -163.8459 -2.5308 -147.8982 27.9196 -12.4725 -34.6583 25.7244 14.4713 -11.6638 -21.3105 9.1749 -0.5546 32.0781 26.5878 -58.9617 -51.8609 -0.0000 -17.9867 1.8247 13.0106 -8.0541 33.1476 -0.0000 26.2537 13.1223 -3.9357 0.1729 -8.2306 27.7504 75.9882 35.5550 0.0000 34.1039 -0.3537 -7.3069 -2.7788 32.8623 0.0000 -24.3270 -22.0412 14.0801 35.6489 151.3705 -0.0000 0.0000 45.8522 15.0379 14.2299 23.0277 0.0000 0.0000 -114.1755 -43.7421 -29.3254 125.6516 0.0000 0.0000 33.4412 -14.2501 14.1633 43.1692 -0.0000 -0.0000
 21.0407 5.2761 -15.1427 -164.1765 -2.5649 -148.0103 27.4569 -12.2600 -34.7745 25.4221 14.4899 -11.3170 -21.4698 9.2383 -0.4017 31.5994 27.2194 -58.5330 -51.7248 -0.0000 -16.5456 2.0782 13.1818 -9.0416 33.1476 -0.0000 26.2537 13.0034 -4.0209 0.3264 -8.1022 27.7715 75.9863 35.6188 0.0000 34.5537 -0.2774 -7.6576 -2.0807 32.8623 0.0000 -24.3270 -22.1940 14.0849 35.8262 151.2833 -0.0000 0.0000 45.7674 14.8737 14.3821 23.2005 -0.0000 -0.0000 -114.3094 -44.0598 -29.3195 125.5879 -0.0000 0.0000 33.4762 -14.4523 14.3132 43.1890 0.0000 0.0000
 21.0551 5.2810 -15.1694 -164.5254 -2.5967 -148.0953 26.9368 -12.0594 -34.9303 25.1717 14.5070 -10.9544 -21.6341 9.3246 -0.2284 31.0703 27.8703 -58.0772 -51.6111 -0.0000 -14.7303 2.3565 13.2894 -10.1496 33.1476 -0.0000 26.2537 12.9022 -4.1099 0.4651 -8.0254 27.7517 76.0334 35.6165 0.0000 35.0765 -0.1968 -7.8140 -1.4470 32.8623 0.0000 -24.3270 -22.3474 14.1342 35.9569 151.1956 0.0000 0.0000 45.6589 14.6958 14.5596 23.2142 0.0000 0.0000 -114.4548 -44.3535 -29.3227 125.5247 0.0000 -0.0000 33.5920 -14.6234 14.4623 43.2617 0.0000 0.0000
 21.0665 5.2843 -15.1956 -164.8748 -2.6354 -148.1831 26.4077 -11.8751 -35.0695 24.9060 14.4858 -10.6047 -21.8719 9.4433 -0.0331 30.6733 28.4307 -57.6423 -51.6690 -0.0000 -13.0835 2.5415 13.4669 -10.7910 33.1476 -0.0000 26.2537 12.7582 -4.2059 0.5846 -7.9064 27.7746 76.0892 35.6572 0.0000 35.5222 -0.1251 -8.0359 -0.8947 32.8623 0.0000 -24.3270 -22.5127 14.1742 36.1109 151.0921 -0.0000 0.0000 45.6322 14.5671 14.6145 23.2632 0.0000 0.0000 -114.6092 -44.6175 -29.3127 125.4820 -0.0000 0.0000 33.7105 -14.7305 14.5887 43.1542 -0.0000 0.0000
 21.0803 5.2881 -15.2226 -165.2298 -2.6639 -148.2794 25.8955 -11.6445 -35.2207 24.6367 14.4597 -10.2009 -22.0270 9.5122 0.1456 30.0826 29.0353 -57.1512 -51.7303 -0.0000 -10.9879 2.7416 13.5980 -11.5123 33.1476 -0.0000 26.2537 12.7262 -4.3191 0.7874 -7.8330 27.6639 76.0657 35.8612 -0.0000 36.2201 -0.0055 -8.3094 -0.0383 32.8623 0.0000 -24.3270 -22.7058 14.2474 36.2838 150.9671 -0.0000 0.0000 45.6966 14.5672 14.5925 23.1895 -0.0000 -0.0000 -114.7440 -44.9003 -29.2963 125.4460 0.0000 0.0000 33.8174 -14.8304 14.6383 43.2415 -0.0000 -0.0000
 21.0911 5.2916 -15.2495 -165.5926 -2.7234 -148.3728 25.3568 -11.4281 -35.3531 24.3898 14.4070 -9.8063 -22.2561 9.6098 0.3370 29.6164 29.5787 -56.6561 -51.9984 -0.0000 -8.6398 2.9303 13.9048 -12.0249 33.1476 -0.0000 26.2537 12.6285 -4.4435 0.9841 -7.6608 27.6381 76.0005 36.0451 -0.0000 36.7269 0.0965 -8.4688 0.6549 32.8623 0.0000 -24.3270 -22.8812 14.2575 36.4307 150.8464 -0.0000 -0.0000 45.7743 14.4107 14.5802 23.1178 0.0000 0.0000 -114.9475 -45.1717 -29.3139 125.4149 0.0000 0.0000 33.9774 -14.9665 14.7133 43.3727 -0.0000 -0.0000
 21.1016 5.2959 -15.2757 -165.9688 -2.7682 -148.4724 24.8259 -11.1902 -35.4593 24.1389 14.3062 -9.4748 -22.4742 9.6735 0.4824 29.1401 30.0868 -56.1305 -52.3106 -0.0000 -6.2730 3.0468 14.1035 -12.3217 33.1476 -0.0000 26.2537 12.3688 -4.4654 1.0944 -7.3130 27.3297 76.0374 36.3666 -0.0000 37.5522 0.2324 -8.8064 1.5176 32.8623 0.0000 -24.3270 -23.0726 14.3007 36.5860 150.7372 0.0000 -0.0000 45.7666 14.2765 14.6253 23.1423 0.0000 -0.0000 -115.1384 -45.4673 -29.3151 125.3942 -0.0000 0.0000 34.2074 -15.0570 14.7225 43.2014 0.0000 0.0000
 21.1101 5.3005 -15.3053 -166.3291 -2.7975 -148.5749 24.3028 -10.9438 -35.5940 23.8813 14.2268 -9.0445 -22.7343 9.6960 0.6797 28.7233 30.6328 -55.6863 -52.7607 -0.0000 -3.6741 3.0600 14.3617 -12.1621 33.1476 -0.0000 26.2537 12.3346 -4.5675 1.3127 -7.1559 27.1418 75.9591 36.6679 -0.0000 38.1919 0.3496 -8.8901 2.2612 32.8623 0.0000 -24.3270 -23.2449 14.3700 36.7697 150.6124 -0.0000 -0.0000 45.8262 14.2438 14.6129 22.9731 -0.0000 0.0000 -115.3164 -45.7373 -29.2997 125.4223 -0.0000 -0.0000 34.3780 -15.1371 14.8646 43.3145 -0.0000 0.0000
 21.1204 5.3022 -15.3338 -166.7025 -2.8595 -148.6955 23.7422 -10.7171 -35.7078 23.6390 14.1805 -8.6194 -22.9385 9.7275 0.8539 28.2791 31.1235 -55.1912 -53.3630 -0.0000 -0.9811 3.0825 14.8561 -11.8619 33.1476 -0.0000 26.2537 12.3530 -4.6923 1.5468 -7.0641 27.0203 75.8722 36.9711 -0.0000 38.8124 0.4790 -9.0898 3.0295 32.8623 0.0000 -24.3270 -23.4667 14.4065 36.9657 150.5177 0.0000 -0.0000 45.8335 14.2481 14.5700 22.7497 0.0000 0.0000 -115.5452 -46.0220 -29.3046 125.4540 0.0000 -0.0000 34.5623 -15.1399 15.0087 43.2065 -0.0000 -0.0000
 21.1280 5.3060 -15.3656 -167.0553 -2.9211 -148.7780 23.2193 -10.4618 -35.8617 23.4079 14.0393 -8.1157 -23.2254 9.6202 1.0885 28.0084 31.5925 -54.8056 -53.9333 -0.0000 1.9986 3.0142 15.0584 -11.4573 33.1476 -0.0000 26.2537 12.3681 -4.8687 1.7775 -6.9680 26.9121 75.7977 37.2487 -0.0000 39.3841 0.6283 -9.2569 3.9002 32.8623 0.0000 -24.3270 -23.6382 14.4619 37.1105 150.4232 0.0000 0.0000 45.7813 14.1900 14.6203 22.6297 -0.0000 -0.0000 -115.7609 -46.2524 -29.3062 125.5257 0.0000 0.0000 34.7982 -15.1340 15.2437 43.2044 -0.0000 -0.0000
 21.1345 5.3101 -15.3933 -167.4429 -2.9826 -148.8759 22.6583 -10.2079 -35.9861 23.1700 13.9273 -7.6863 -23.3394 9.5612 1.2512 27.5267 32.0226 -54.3713 -54.5647 -0.0000 5.0561 2.9370 15.4068 -10.9303 33.1476 -0.0000 26.2537 12.3851 -4.9997 2.0189 -6.8167 26.7841 75.6844 37.6270 -0.0000 39.9039 0.7456 -9.4914 4.5126 32.8623 0.0000 -24.3270 -23.8607 14.5267 37.2773 150.3416 -0.0000 -0.0000 45.7311 14.1090 14.7062 22.4002 0.0000 0.0000 -116.0107 -46.4870 -29.2924 125.5856 0.0000 -0.0000 35.0453 -15.1123 15.4501 43.1539 0.0000 -0.0000
 21.1408 5.3132 -15.4248 -167.8156 -3.0245 -148.9845 22.1114 -9.9523 -36.1192 22.9342 13.7980 -7.2214 -23.5338 9.4907 1.4679 27.1455 32.4104 -53.9636 -55.2314 -0.0000 8.0791 2.9222 15.6990 -10.6835 33.1476 -0.0000 26.2537 12.4308 -5.1253 2.3006 -6.6866 26.5420 75.5253 38.0920 -0.0000 40.7887 0.9471 -9.6585 5.6275 32.8623 0.0000 -24.3270 -24.0462 14.5948 37.4726 150.2346 -0.0000 0.0000 45.7282 14.0771 14.7055 22.3371 -0.0000 -0.0000 -116.2142 -46.7189 -29.2834 125.6555 -0.0000 -0.0000 35.2265 -14.9938 15.4674 43.0672 -0.0000 -0.0000
 21.1488 5.3155 -15.4539 -168.2072 -3.0813 -149.0940 21.5487 -9.6867 -36.2560 22.6821 13.6627 -6.7193 -23.7302 9.3965 1.6711 26.7864 32.7368 -53.5549 -55.9439 -0.0000 11.0964 2.8937 16.0893 -10.3366 33.1476 -0.0000 26.2537 12.4417 -5.2821 2.5793 -6.5327 26.3745 75.3713 38.5223 -0.0000 41.4414 1.1259 -9.8348 6.5637 32.8623 0.0000 -24.3270 -24.2628 14.6649 37.6366 150.1324 -0.0000 0.0000 45.6646 14.0427 14.6857 22.4077 0.0000 0.0000 -116.4120 -46.9635 -29.2314 125.6933 0.0000 0.0000 35.4150 -14.9860 15.5462 43.1914 -0.0000 0.0000
 21.1542 5.3185 -15.4842 -168.5909 -3.1158 -149.2169 21.0054 -9.4190 -36.3600 22.4303 13.5389 -6.2687 -23.8923 9.2951 1.8533 26.4470 32.9446 -53.1494 -56.5760 -0.0000 13.9967 2.8379 16.4480 -9.9302 33.1476 -0.0000 26.2537 12.4320 -5.4199 2.8458 -6.3398 26.1792 75.1954 39.0323 -0.0000 42.2438 1.3391 -10.0423 7.6356 32.8623 0.0000 -24.3270 -24.4681 14.7402 37.8385 150.0329 0.0000 -0.0000 45.7121 13.9928 14.7292 22.0900 0.0000 0.0000 -116.5850 -47.2374 -29.1850 125.7271 0.0000 0.0000 35.5667 -15.0010 15.6054 43.3368 -0.0000 -0.0000
 21.1579 5.3212 -15.5147 -168.9561 -3.1449 -149.3168 20.4951 -9.1631 -36.4892 22.1448 13.3442 -5.8000 -24.1379 9.1645 2.0915 26.1303 33.2004 -52.7935 -57.2313 -0.0000 16.6578 2.8213 16.7792 -9.6875 33.1476 -0.0000 26.2537 12.3981 -5.5678 3.1126 -6.1166 25.9972 75.0138 39.5773 -0.0000 42.9849 1.5317 -10.2164 8.5732 32.8623 0.0000 -24.3270 -24.6351 14.8136 38.0047 149.9259 -0.0000 0.0000 45.7179 13.9155 14.7341 21.8824 -0.0000 -0.0000 -116.7378 -47.4534 -29.1185 125.7579 0.0000 -0.0000 35.7853 -15.0568 15.9301 43.5568 -0.0000 -0.0000
 21.1626 5.3255 -15.5434 -169.2862 -3.2190 -149.4105 19.9934 -9.0002 -36.6077 21.8156 13.2342 -5.3589 -24.3558 9.0553 2.3190 25.7782 33.3733 -52.3733 -57.8574 -0.0000 18.6744 2.8353 17.1677 -9.5248 33.1476 -0.0000 26.2537 12.4025 -5.6874 3.4304 -5.9240 25.7638 74.7617 40.2765 -0.0000 43.9445 1.8082 -10.4940 9.8337 32.8623 0.0000 -24.3270 -24.7968 14.8261 38.1278 149.8397 0.0000 0.0000 45.6453 13.7828 14.6980 21.9863 -0.0000 0.0000 -116.9344 -47.6101 -29.1081 125.8081 -0.0000 -0.0000 35.9876 -15.0145 16.1833 43.5496 0.0000 0.0000
 21.1691 5.3278 -15.5763 -169.6238 -3.2169 -149.5679 19.5416 -8.7363 -36.6600 21.5327 13.1299 -4.9431 -24.4083 8.9809 2.4841 25.2515 33.4745 -51.9336 -58.4613 -0.0000 20.2212 2.7808 17.5544 -9.1486 33.1476 -0.0000 26.2537 12.4461 -5.8478 3.7530 -5.7786 25.5320 74.4973 40.9927 -0.0000 44.8527 2.0927 -10.7189 11.1150 32.8623 0.0000 -24.3270 -24.9540 14.8777 38.3724 149.7061 -0.0000 -0.0000 45.8028 13.7967 14.7235 21.7656 0.0000 0.0000 -117.0631 -47.9343 -29.0642 125.8334 -0.0000 -0.0000 36.0309 -15.0473 16.2068 43.5556 0.0000 0.0000
 21.1729 5.3300 -15.6090 -169.9416 -3.1885 -149.7068 19.1374 -8.4879 -36.7269 21.1809 12.9656 -4.5312 -24.7105 8.8419 2.6976 24.9706 33.6173 -51.5214 -59.0163 -0.0000 21.2474 2.6859 17.9478 -8.6561 33.1476 -0.0000 26.2537 12.4702 -6.0168 4.0716 -5.6221 25.3088 74.2139 41.7752 -0.0000 45.8497 2.3972 -10.8558 12.5319 32.8623 0.0000 -24.3270 -25.0640 14.9391 38.5959 149.5859 0.0000 -0.0000 45.8766 13.7339 14.7155 21.6432 0.0000 0.0000 -117.1497 -48.2316 -28.9978 125.8501 0.0000 -0.0000 36.1247 -15.0627 16.2304 43.6979 -0.0000 -0.0000
 21.1757 5.3332 -15.6400 -170.2522 -3.1844 -149.8357 18.7303 -8.2811 -36.7926 20.8043 12.8069 -4.1209 -24.9497 8.7269 2.9321 24.5184 33.7759 -51.1039 -59.4970 -0.0000 21.8973 2.6378 18.1410 -8.4169 33.1476 -0.0000 26.2537 12.4506 -6.1696 4.3999 -5.4288 25.0177 73.9192 42.6322 -0.0000 46.8425 2.7344 -11.0408 14.0034 32.8623 0.0000 -24.3270 -25.1691 14.9883 38.7847 149.4936 0.0000 0.0000 45.8403 13.5858 14.8284 21.5739 -0.0000 -0.0000 -117.2524 -48.4527 -28.9377 125.8775 0.0000 0.0000 36.2916 -15.0885 16.3989 43.7395 -0.0000 0.0000
 21.1799 5.3368 -15.6726 -170.5117 -3.1744 -149.9689 18.3557 -8.1388 -36.8470 20.4576 12.7236 -3.7473 -25.2433 8.6250 3.1921 24.1029 33.9572 -50.6778 -59.9680 -0.0000 21.8515 2.5075 18.2316 -7.9682 33.1476 -0.0000 26.2537 12.3895 -6.2484 4.7202 -5.1932 24.6643 73.6180 43.5574 -0.0000 47.8352 3.0493 -11.1498 15.4016 32.8623 0.0000 -24.3270 -25.2161 15.0499 38.9473 149.3958 0.0000 -0.0000 45.7173 13.5136 14.9178 21.7432 -0.0000 -0.0000 -117.3018 -48.6817 -28.8867 125.8801 -0.0000 -0.0000 36.4566 -15.1878 16.5962 43.7992 -0.0000 -0.0000
